<svg width="598" height="432" xmlns="http://www.w3.org/2000/svg" xmlns:xlink="http://www.w3.org/1999/xlink" xml:space="preserve" overflow="hidden"><defs><clipPath id="clip0"><rect x="0" y="0" width="598" height="432"/></clipPath><clipPath id="clip1"><rect x="28" y="177" width="16" height="29"/></clipPath><clipPath id="clip2"><rect x="28" y="177" width="16" height="29"/></clipPath><clipPath id="clip3"><rect x="28" y="173" width="16" height="37"/></clipPath></defs><g clip-path="url(#clip0)"><path d="M0 0 727.902 0 727.902 431.307 0 431.307Z" fill="#FFFFFF" transform="matrix(1 0 0 1.0015 -48.2307 0)"/><path d="M118.749 32.3052 609.579 32.3052 609.579 399.43 118.749 399.43Z" stroke="#000000" stroke-width="2.85312" stroke-miterlimit="8" fill="none" transform="matrix(1 0 0 1.0015 -48.2307 0)"/><path d="M149.774 204.101 248.196 204.101 248.196 256.731 149.774 256.731Z" stroke="#000000" stroke-width="1.71187" stroke-miterlimit="8" fill="none" transform="matrix(1 0 0 1.0015 -48.2307 0)"/><text font-family="Times New Roman,Times New Roman_MSFontService,sans-serif" font-weight="700" font-size="24" transform="matrix(0.427925 0 0 0.428529 114.348 234)">I<tspan font-size="24" x="9.00001" y="0">2</tspan><tspan font-size="24" x="21" y="0">C Slave </tspan><tspan font-size="24" x="105.344" y="0">Model</tspan></text><path d="M149.774 264.859 247.768 264.859 247.768 343.59 149.774 343.59Z" stroke="#000000" stroke-width="1.71187" stroke-miterlimit="8" fill="none" transform="matrix(1 0 0 1.0015 -48.2307 0)"/><text font-family="Times New Roman,Times New Roman_MSFontService,sans-serif" font-weight="700" font-size="24" transform="matrix(0.427925 0 0 0.428529 114.413 307)">SPI Slave <tspan font-size="24" x="104.01" y="0">Model</tspan></text><path d="M275.799 48.1369 596.742 48.1369 596.742 383.597 275.799 383.597Z" stroke="#000000" stroke-width="2.28249" stroke-miterlimit="8" fill="none" transform="matrix(1 0 0 1.0015 -48.2307 0)"/><text font-family="Times New Roman,Times New Roman_MSFontService,sans-serif" font-weight="700" font-size="24" transform="matrix(0.427925 0 0 0.428529 234.842 62)">UBSoC</text><path d="M482.273 171.581 572.137 171.581 572.137 283.26 482.273 283.26Z" stroke="#000000" stroke-width="1.71187" stroke-miterlimit="8" fill="none" transform="matrix(1 0 0 1.0015 -48.2307 0)"/><text font-family="Times New Roman,Times New Roman_MSFontService,sans-serif" font-weight="700" font-size="24" transform="matrix(0.427925 0 0 0.428529 457.159 232)">PicoRV<tspan font-size="24" x="77.9998" y="0">32</tspan></text><path d="M482.273 296.951 572.137 296.951 572.137 365.412 482.273 365.412Z" stroke="#000000" stroke-width="1.71187" stroke-miterlimit="8" fill="none" transform="matrix(1 0 0 1.0015 -48.2307 0)"/><text font-family="Times New Roman,Times New Roman_MSFontService,sans-serif" font-weight="700" font-size="24" transform="matrix(0.427925 0 0 0.428529 466.393 336)">ROM</text><path d="M482.273 127.509 572.137 127.509 572.137 157.889 482.273 157.889Z" stroke="#000000" stroke-width="1.71187" stroke-miterlimit="8" fill="none" transform="matrix(1 0 0 1.0015 -48.2307 0)"/><text font-family="Times New Roman,Times New Roman_MSFontService,sans-serif" font-weight="700" font-size="24" transform="matrix(0.427925 0 0 0.428529 463.718 147)">SRAM</text><path d="M482.273 83.0094 572.137 83.0094 572.137 113.389 482.273 113.389Z" stroke="#000000" stroke-width="1.71187" stroke-miterlimit="8" fill="none" transform="matrix(1 0 0 1.0015 -48.2307 0)"/><text font-family="Times New Roman,Times New Roman_MSFontService,sans-serif" font-weight="700" font-size="24" transform="matrix(0.427925 0 0 0.428529 464.471 102)">UART</text><path d="M293.558 92.8509 391.552 92.8509 391.552 171.581 293.558 171.581Z" stroke="#000000" stroke-width="1.71187" stroke-miterlimit="8" fill="none" transform="matrix(1 0 0 1.0015 -48.2307 0)"/><text font-family="Times New Roman,Times New Roman_MSFontService,sans-serif" font-weight="700" font-size="24" transform="matrix(0.427925 0 0 0.428529 281.098 136)">GPIO</text><path d="M293.558 178.855 391.552 178.855 391.552 257.585 293.558 257.585Z" stroke="#000000" stroke-width="1.71187" stroke-miterlimit="8" fill="none" transform="matrix(1 0 0 1.0015 -48.2307 0)"/><text font-family="Times New Roman,Times New Roman_MSFontService,sans-serif" font-weight="700" font-size="24" transform="matrix(0.427925 0 0 0.428529 285.948 223)">I<tspan font-size="24" x="8.99999" y="0">2</tspan><tspan font-size="24" x="21" y="0">C</tspan></text><path d="M293.558 264.859 391.552 264.859 391.552 343.59 293.558 343.59Z" stroke="#000000" stroke-width="1.71187" stroke-miterlimit="8" fill="none" transform="matrix(1 0 0 1.0015 -48.2307 0)"/><text font-family="Times New Roman,Times New Roman_MSFontService,sans-serif" font-weight="700" font-size="24" transform="matrix(0.427925 0 0 0.428529 286.233 307)">SPI<tspan font-size="24" x="-490.151" y="-606.727">UBSoC</tspan><tspan font-size="24" x="-408.143" y="-606.727">Debugging</tspan><tspan font-size="24" x="-291.465" y="-606.727">Platform</tspan></text><path d="M392.622 132.43 396.046 129.007 396.046 130.718 411.45 130.718 411.45 129.007 414.874 132.43 411.45 135.853 411.45 134.141 396.046 134.141 396.046 135.853Z" stroke="#000000" stroke-width="0.570622" stroke-miterlimit="8" fill="none" fill-rule="evenodd" transform="matrix(1 0 0 1.0015 -48.2307 0)"/><path d="M392.622 218.434 396.046 215.012 396.046 216.723 411.45 216.723 411.45 215.012 414.874 218.434 411.45 221.858 411.45 220.147 396.046 220.147 396.046 221.858Z" stroke="#000000" stroke-width="0.570622" stroke-miterlimit="8" fill="none" fill-rule="evenodd" transform="matrix(1 0 0 1.0015 -48.2307 0)"/><path d="M392.622 304.439 396.046 301.017 396.046 302.728 411.45 302.728 411.45 301.017 414.874 304.439 411.45 307.862 411.45 306.151 396.046 306.151 396.046 307.862Z" stroke="#000000" stroke-width="0.570622" stroke-miterlimit="8" fill="none" fill-rule="evenodd" transform="matrix(1 0 0 1.0015 -48.2307 0)"/><path d="M5.73554e-07-0.570622 41.8485-0.570584 41.8485 0.570666-5.73554e-07 0.570622ZM41.2778-1.71183 44.7017 4.49311e-05 41.2778 1.71192Z" transform="matrix(-1 0 0 1.0014 244.882 280.472)"/><path d="M5.73554e-07-0.570622 41.8485-0.570584 41.8485 0.570666-5.73554e-07 0.570622ZM41.2778-1.71183 44.7017 4.49311e-05 41.2778 1.71192Z" transform="matrix(-1 0 0 1.0014 244.882 313.04)"/><path d="M248.411 295.738 290.26 295.738 290.26 296.88 248.411 296.88ZM289.689 294.597 293.112 296.31 289.689 298.021Z" transform="matrix(1 0 0 1.0015 -48.2307 0)"/><path d="M5.73554e-07-0.570622 41.8485-0.570584 41.8485 0.570666-5.73554e-07 0.570622ZM41.2778-1.71183 44.7017 4.49311e-05 41.2778 1.71192Z" transform="matrix(-1 0 0 1.0014 244.882 328.897)"/><path d="M1.37387e-07-0.570622 186.617-0.570581 186.617 0.570669-1.37387e-07 0.570622ZM186.617-2.85308 189.47 4.5618e-05 186.617 2.85316 183.764 4.42443e-05Z" transform="matrix(-1 0 0 1.0014 245.154 103.49)"/><path d="M1.37387e-07-0.570622 186.617-0.570581 186.617 0.570669-1.37387e-07 0.570622ZM186.617-2.85308 189.47 4.5618e-05 186.617 2.85316 183.764 4.42443e-05Z" transform="matrix(-1 0 0 1.0014 245.154 116.346)"/><path d="M1.37387e-07-0.570622 186.617-0.570581 186.617 0.570669-1.37387e-07 0.570622ZM186.617-2.85308 189.47 4.5618e-05 186.617 2.85316 183.764 4.42443e-05Z" transform="matrix(-1 0 0 1.0014 245.154 128.773)"/><path d="M455.527 56.6946 584.761 56.6946 584.761 374.612 455.527 374.612Z" stroke="#000000" stroke-width="2.28249" stroke-miterlimit="8" fill="none" transform="matrix(1 0 0 1.0015 -48.2307 0)"/><text font-family="Times New Roman,Times New Roman_MSFontService,sans-serif" font-weight="700" font-size="24" transform="matrix(0.427925 0 0 0.428529 412.88 70)">Custom<tspan font-size="24" x="86.0085" y="0">PicoSoC</tspan></text><path d="M415.944 75.5802 427.283 57.7643 438.625 75.5802 438.625 75.5802 438.625 356.582 438.625 356.582 427.283 374.399 415.944 356.582 415.944 356.582 415.944 75.5802Z" stroke="#000000" stroke-width="1.71187" stroke-miterlimit="8" fill="none" fill-rule="evenodd" transform="matrix(1 0 0 1.0015 -48.2307 0)"/><text font-family="Times New Roman,Times New Roman_MSFontService,sans-serif" font-weight="700" font-size="24" transform="matrix(2.62028e-17 -0.428487 0.427968 2.62398e-17 382.639 272)">Native <tspan font-size="24" x="74.6813" y="-4.57244e-15">memory</tspan><tspan font-size="24" x="168.033" y="-1.0288e-14">interface</tspan></text><path d="M572.35 90.3548 618.536 90.3548 618.536 91.4961 572.35 91.4957ZM617.962 88.0726 623.671 90.9252 617.962 93.7781Z" transform="matrix(1 0 0 1.0015 -48.2307 0)"/><text font-family="Times New Roman,Times New Roman_MSFontService,sans-serif" font-weight="700" font-size="19" transform="matrix(0.427925 0 0 0.428529 579.202 94)">TX<tspan font-size="19" x="-0.0340887" y="28.0028">RX</tspan></text><path d="M4.99581e-07-0.570622 46.185-0.570584 46.185 0.570666-4.99581e-07 0.570622ZM45.6146-2.85308 51.3207 4.49311e-05 45.6146 2.85316Z" transform="matrix(-1 0 0 1.0014 575.44 103.49)"/><path d="M440.12 218.434 443.544 215.012 443.544 216.723 464.086 216.723 464.086 215.012 467.508 218.434 464.086 221.858 464.086 220.147 443.544 220.147 443.544 221.858Z" stroke="#000000" stroke-width="0.570622" stroke-miterlimit="8" fill="#FFFFFF" fill-rule="evenodd" transform="matrix(1 0 0 1.0015 -48.2307 0)"/><path d="M469.649 82.3676 473.071 85.7906 471.36 85.7906 471.36 361.777 473.071 361.777 469.649 365.199 466.225 361.777 467.936 361.777 467.936 85.7906 466.225 85.7906Z" stroke="#000000" stroke-width="0.570566" stroke-miterlimit="8" fill="#FFFFFF" fill-rule="evenodd" transform="matrix(1 0 0 1.0015 -48.2307 0)"/><path d="M471.788 331.396 475.212 327.972 475.212 329.685 478.208 329.685 478.208 327.972 481.63 331.396 478.208 334.82 478.208 333.107 475.212 333.107 475.212 334.82Z" stroke="#000000" stroke-width="0.570622" stroke-miterlimit="8" fill="none" fill-rule="evenodd" transform="matrix(1 0 0 1.0015 -48.2307 0)"/><path d="M471.788 218.221 475.425 214.584 475.425 216.402 477.993 216.402 477.993 214.584 481.63 218.221 477.993 221.858 477.993 220.039 475.425 220.039 475.425 221.858Z" stroke="#000000" stroke-width="0.570622" stroke-miterlimit="8" fill="none" fill-rule="evenodd" transform="matrix(1 0 0 1.0015 -48.2307 0)"/><path d="M471.788 142.485 475.425 138.848 475.425 140.667 477.993 140.667 477.993 138.848 481.63 142.485 477.993 146.123 477.993 144.304 475.425 144.304 475.425 146.123Z" stroke="#000000" stroke-width="0.570622" stroke-miterlimit="8" fill="none" fill-rule="evenodd" transform="matrix(1 0 0 1.0015 -48.2307 0)"/><path d="M471.788 99.269 475.425 95.6319 475.425 97.4506 477.993 97.4506 477.993 95.6319 481.63 99.269 477.993 102.906 477.993 101.087 475.425 101.087 475.425 102.906Z" stroke="#000000" stroke-width="0.570622" stroke-miterlimit="8" fill="none" fill-rule="evenodd" transform="matrix(1 0 0 1.0015 -48.2307 0)"/><text font-family="Times New Roman,Times New Roman_MSFontService,sans-serif" font-weight="700" font-size="19" transform="matrix(0.427925 0 0 0.428529 21.249 106)">LED [0:7]<tspan font-size="19" x="-38.989" y="25.6692">BUTTON </tspan><tspan font-size="19" x="47.011" y="25.6692">[</tspan><tspan font-size="19" x="53.011" y="25.6692">0</tspan>:<tspan font-size="19" x="68.011" y="25.6692">7</tspan><tspan font-size="19" x="78.011" y="25.6692">]</tspan><tspan font-size="19" x="-35.5266" y="56.0056">SWITCH </tspan><tspan font-size="19" x="47.4734" y="56.0056">[</tspan><tspan font-size="19" x="53.4734" y="56.0056">0</tspan><tspan font-size="19" x="63.4734" y="56.0056">:</tspan>7<tspan font-size="19" x="78.4734" y="56.0056">]</tspan></text><g clip-path="url(#clip1)"><g clip-path="url(#clip2)"><g clip-path="url(#clip3)"><path d="M4.27925 6.41888 10.6981 6.41888 11.7679 4.27925 13.9076 8.55851 16.0472 4.27925 18.1868 8.55851 20.3265 4.27925 22.4661 8.55851 23.5359 6.41888 29.9547 6.41888" stroke="#000000" stroke-width="1.14114" stroke-linejoin="bevel" fill="none" transform="matrix(6.15017e-17 1.00581 -1 6.13187e-17 41.2056 174.564)"/></g></g></g><path d="M0.570622-2.8385e-06 0.570669 9.03254-0.570581 9.03254-0.570622 2.8385e-06ZM1.71192 9.03254C1.71193 9.97796 0.945493 10.7444 5.34463e-05 10.7444-0.945387 10.7444-1.71182 9.978-1.71183 9.03254-1.71183 8.08711-0.945404 7.32065 3.64156e-05 7.32065 0.945476 7.32065 1.71191 8.08711 1.71192 9.03254Z" transform="matrix(1 0 0 -1.0014 35.0007 179.814)"/><path d="M0 0 198.398 0 198.398 53.0381 210.398 53.0381 210.398 20.2373" stroke="#000000" stroke-width="1.14125" stroke-miterlimit="8" fill="none" fill-rule="evenodd" transform="matrix(-1 1.22638e-16 1.22465e-16 1.0014 245.399 184.054)"/><path d="M94.7855 236.263 147.128 236.263 147.128 237.404 94.7855 237.404ZM146.558 235.122 149.981 236.834 146.558 238.545Z" transform="matrix(1 0 0 1.0015 -48.2307 0)"/><text font-family="Times New Roman,Times New Roman_MSFontService,sans-serif" font-weight="700" font-size="19" transform="matrix(0.427925 0 0 0.428529 27.9075 164)">Vcc<tspan font-size="19" x="410.303" y="298.696">MISO</tspan><tspan font-size="19" x="410.652" y="263.693">MOSI</tspan><tspan font-size="19" x="421.946" y="373.37">SS</tspan><tspan font-size="19" x="409.222" y="338.367">SCLK</tspan><tspan font-size="19" x="112.478" y="193.686">SDA</tspan></text><path d="M0 0 187.065 0 187.065 30.5523 144.453 30.5523" stroke="#000000" stroke-width="1.14125" stroke-miterlimit="8" fill="none" fill-rule="evenodd" transform="matrix(-1 1.22638e-16 1.22465e-16 1.0014 246.21 194.766)"/><text font-family="Times New Roman,Times New Roman_MSFontService,sans-serif" font-weight="700" font-size="19" transform="matrix(0.427925 0 0 0.428529 76.4702 223)">SCL</text></g></svg>