<svg width="522" height="396" xmlns="http://www.w3.org/2000/svg" xmlns:xlink="http://www.w3.org/1999/xlink" xml:space="preserve" overflow="hidden"><defs><clipPath id="clip0"><rect x="0" y="0" width="522" height="396"/></clipPath></defs><g clip-path="url(#clip0)"><path d="M0 0 826.564 0 826.564 489.767 0 489.767Z" fill="#FFFFFF" transform="matrix(1 0 0 1.00048 -212.576 -46.5254)"/><path d="M313.181 54.6616 677.627 54.6616 677.627 435.592 313.181 435.592Z" stroke="#000000" stroke-width="2.59187" stroke-miterlimit="8" fill="none" transform="matrix(1 0 0 1.00048 -212.576 -46.5254)"/><text font-family="Times New Roman,Times New Roman_MSFontService,sans-serif" font-weight="700" font-size="24" transform="matrix(0.485928 0 0 0.486114 108.865 23)">UBSoC</text><path d="M547.641 194.838 649.686 194.838 649.686 321.653 547.641 321.653Z" stroke="#000000" stroke-width="1.9439" stroke-miterlimit="8" fill="none" transform="matrix(1 0 0 1.00048 -212.576 -46.5254)"/><text font-family="Times New Roman,Times New Roman_MSFontService,sans-serif" font-weight="700" font-size="24" transform="matrix(0.485928 0 0 0.486114 361.315 216)">PicoRV<tspan font-size="24" x="78" y="0">32</tspan></text><path d="M547.641 337.201 649.686 337.201 649.686 414.942 547.641 414.942Z" stroke="#000000" stroke-width="1.9439" stroke-miterlimit="8" fill="none" transform="matrix(1 0 0 1.00048 -212.576 -46.5254)"/><text font-family="Times New Roman,Times New Roman_MSFontService,sans-serif" font-weight="700" font-size="24" transform="matrix(0.485928 0 0 0.486114 371.802 334)">ROM</text><path d="M547.641 144.793 649.686 144.793 649.686 179.29 547.641 179.29Z" stroke="#000000" stroke-width="1.9439" stroke-miterlimit="8" fill="none" transform="matrix(1 0 0 1.00048 -212.576 -46.5254)"/><text font-family="Times New Roman,Times New Roman_MSFontService,sans-serif" font-weight="700" font-size="24" transform="matrix(0.485928 0 0 0.486114 368.765 120)">SRAM</text><path d="M547.641 94.2609 649.686 94.2609 649.686 128.758 547.641 128.758Z" stroke="#000000" stroke-width="1.9439" stroke-miterlimit="8" fill="none" transform="matrix(1 0 0 1.00048 -212.576 -46.5254)"/><text font-family="Times New Roman,Times New Roman_MSFontService,sans-serif" font-weight="700" font-size="24" transform="matrix(0.485928 0 0 0.486114 369.62 69)">UART</text><path d="M333.347 105.436 444.624 105.436 444.624 194.838 333.347 194.838Z" stroke="#000000" stroke-width="1.9439" stroke-miterlimit="8" fill="none" transform="matrix(1 0 0 1.00048 -212.576 -46.5254)"/><text font-family="Times New Roman,Times New Roman_MSFontService,sans-serif" font-weight="700" font-size="24" transform="matrix(0.485928 0 0 0.486114 161.391 108)">GPIO</text><path d="M333.347 203.098 444.624 203.098 444.624 292.5 333.347 292.5Z" stroke="#000000" stroke-width="1.9439" stroke-miterlimit="8" fill="none" transform="matrix(1 0 0 1.00048 -212.576 -46.5254)"/><text font-family="Times New Roman,Times New Roman_MSFontService,sans-serif" font-weight="700" font-size="24" transform="matrix(0.485928 0 0 0.486114 166.899 205)">I<tspan font-size="24" x="8.99999" y="0">2</tspan><tspan font-size="24" x="21" y="0">C</tspan></text><path d="M333.347 300.76 444.624 300.76 444.624 390.162 333.347 390.162Z" stroke="#000000" stroke-width="1.9439" stroke-miterlimit="8" fill="none" transform="matrix(1 0 0 1.00048 -212.576 -46.5254)"/><text font-family="Times New Roman,Times New Roman_MSFontService,sans-serif" font-weight="700" font-size="24" transform="matrix(0.485928 0 0 0.486114 167.223 303)">SPI</text><path d="M445.839 150.38 449.727 146.493 449.727 148.437 467.22 148.437 467.22 146.493 471.108 150.38 467.22 154.267 467.22 152.323 449.727 152.323 449.727 154.267Z" stroke="#000000" stroke-width="0.647966" stroke-miterlimit="8" fill="none" fill-rule="evenodd" transform="matrix(1 0 0 1.00048 -212.576 -46.5254)"/><path d="M445.839 248.042 449.727 244.155 449.727 246.098 467.22 246.098 467.22 244.155 471.108 248.042 467.22 251.929 467.22 249.986 449.727 249.986 449.727 251.929Z" stroke="#000000" stroke-width="0.647966" stroke-miterlimit="8" fill="none" fill-rule="evenodd" transform="matrix(1 0 0 1.00048 -212.576 -46.5254)"/><path d="M445.839 345.704 449.727 341.817 449.727 343.761 467.22 343.761 467.22 341.817 471.108 345.704 467.22 349.591 467.22 347.648 449.727 347.648 449.727 349.591Z" stroke="#000000" stroke-width="0.647966" stroke-miterlimit="8" fill="none" fill-rule="evenodd" transform="matrix(1 0 0 1.00048 -212.576 -46.5254)"/><path d="M6.51297e-07-0.647968 47.5209-0.647924 47.5209 0.648016-6.51297e-07 0.647968ZM46.8729-1.94386 50.7608 5.10213e-05 46.8729 1.94396Z" transform="matrix(-1 0 0 1.00038 120.266 271.636)"/><path d="M6.51297e-07-0.647968 47.5209-0.647924 47.5209 0.648016-6.51297e-07 0.647968ZM46.8729-1.94386 50.7608 5.10213e-05 46.8729 1.94396Z" transform="matrix(-1 0 0 1.00038 120.266 308.58)"/><path d="M282.081 335.825 329.602 335.825 329.602 337.121 282.081 337.12ZM328.954 334.529 332.842 336.472 328.954 338.416Z" transform="matrix(1 0 0 1.00048 -212.576 -46.5254)"/><path d="M6.51297e-07-0.647968 47.5209-0.647924 47.5209 0.648016-6.51297e-07 0.647968ZM46.8729-1.94386 50.7608 5.10213e-05 46.8729 1.94396Z" transform="matrix(-1 0 0 1.00038 120.266 326.567)"/><path d="M517.271 64.3792 664.021 64.3792 664.021 425.388 517.271 425.388Z" stroke="#000000" stroke-width="2.59187" stroke-miterlimit="8" fill="none" transform="matrix(1 0 0 1.00048 -212.576 -46.5254)"/><text font-family="Times New Roman,Times New Roman_MSFontService,sans-serif" font-weight="700" font-size="24" transform="matrix(0.485928 0 0 0.486114 311.036 32)">Custom<tspan font-size="24" x="86.0085" y="0">PicoSoC</tspan></text><path d="M472.322 85.8247 485.199 65.594 498.077 85.8247 498.077 85.8247 498.077 404.915 498.077 404.915 485.199 425.146 472.322 404.915 472.322 404.915 472.322 85.8247Z" stroke="#000000" stroke-width="1.9439" stroke-miterlimit="8" fill="none" fill-rule="evenodd" transform="matrix(1 0 0 1.00048 -212.576 -46.5254)"/><text font-family="Times New Roman,Times New Roman_MSFontService,sans-serif" font-weight="700" font-size="24" transform="matrix(2.97545e-17 -0.486066 0.485977 2.97659e-17 276.696 261)">Native <tspan font-size="24" x="74.064" y="-4.53466e-15">memory</tspan><tspan font-size="24" x="164.587" y="-1.0077e-14">interface</tspan></text><path d="M649.929 102.602 702.375 102.602 702.375 103.898 649.929 103.897ZM701.724 100.01 708.207 103.25 701.724 106.489Z" transform="matrix(1 0 0 1.00048 -212.576 -46.5254)"/><text font-family="Times New Roman,Times New Roman_MSFontService,sans-serif" font-weight="700" font-size="19" transform="matrix(0.485928 0 0 0.486114 499.902 59)">TX<tspan font-size="19" x="-0.034039" y="30.857">RX</tspan></text><path d="M5.67295e-07-0.647968 52.4452-0.647924 52.4452 0.648016-5.67295e-07 0.647968ZM51.7974-3.2398 58.2769 5.10213e-05 51.7974 3.23989Z" transform="matrix(-1 0 0 1.00038 495.631 70.8709)"/><path d="M499.777 248.042 503.665 244.155 503.665 246.098 526.989 246.098 526.989 244.155 530.877 248.042 526.989 251.929 526.989 249.986 503.665 249.986 503.665 251.929Z" stroke="#000000" stroke-width="0.647966" stroke-miterlimit="8" fill="#FFFFFF" fill-rule="evenodd" transform="matrix(1 0 0 1.00048 -212.576 -46.5254)"/><path d="M533.306 93.532 537.194 97.4189 535.25 97.4189 535.25 410.813 537.194 410.813 533.306 414.699 529.419 410.813 531.363 410.813 531.363 97.4189 529.419 97.4189Z" stroke="#000000" stroke-width="0.647903" stroke-miterlimit="8" fill="#FFFFFF" fill-rule="evenodd" transform="matrix(1 0 0 1.00048 -212.576 -46.5254)"/><path d="M535.736 376.315 539.623 372.428 539.623 374.371 543.025 374.371 543.025 372.428 546.912 376.315 543.025 380.201 543.025 378.258 539.623 378.258 539.623 380.201Z" stroke="#000000" stroke-width="0.647966" stroke-miterlimit="8" fill="none" fill-rule="evenodd" transform="matrix(1 0 0 1.00048 -212.576 -46.5254)"/><path d="M535.736 247.799 539.866 243.669 539.866 245.734 542.782 245.734 542.782 243.669 546.912 247.799 542.782 251.929 542.782 249.864 539.866 249.864 539.866 251.929Z" stroke="#000000" stroke-width="0.647966" stroke-miterlimit="8" fill="none" fill-rule="evenodd" transform="matrix(1 0 0 1.00048 -212.576 -46.5254)"/><path d="M535.736 161.798 539.866 157.668 539.866 159.733 542.782 159.733 542.782 157.668 546.912 161.798 542.782 165.928 542.782 163.863 539.866 163.863 539.866 165.928Z" stroke="#000000" stroke-width="0.647966" stroke-miterlimit="8" fill="none" fill-rule="evenodd" transform="matrix(1 0 0 1.00048 -212.576 -46.5254)"/><path d="M535.736 112.724 539.866 108.594 539.866 110.659 542.782 110.659 542.782 108.594 546.912 112.724 542.782 116.854 542.782 114.789 539.866 114.789 539.866 116.854Z" stroke="#000000" stroke-width="0.647966" stroke-miterlimit="8" fill="none" fill-rule="evenodd" transform="matrix(1 0 0 1.00048 -212.576 -46.5254)"/><text font-family="Times New Roman,Times New Roman_MSFontService,sans-serif" font-weight="700" font-size="19" transform="matrix(0.485928 0 0 0.486114 27.5195 73)">LED [<tspan font-size="19" x="50" y="0">0</tspan><tspan font-size="19" x="60" y="0">:</tspan>7]<tspan font-size="19" x="-38.989" y="30.857">BUTTON </tspan><tspan font-size="19" x="47.011" y="30.857">[</tspan><tspan font-size="19" x="53.011" y="30.857">0</tspan><tspan font-size="19" x="63.011" y="30.857">:</tspan>7]<tspan font-size="19" x="-35.5266" y="59.6568">SWITCH </tspan>[0<tspan font-size="19" x="63.4734" y="59.6568">:</tspan>7]<tspan font-size="19" x="29.1388" y="452.569">MISO</tspan><tspan font-size="19" x="29.264" y="413.484">MOSI</tspan><tspan font-size="19" x="41.6205" y="528.683">SS</tspan><tspan font-size="19" x="27.9874" y="489.598">SCLK</tspan><tspan font-size="19" x="39.8893" y="287.999">SDA</tspan><tspan font-size="19" x="40.8707" y="250.97">SCL</tspan></text><path d="M6.51297e-07-0.647968 47.5209-0.647924 47.5209 0.648016-6.51297e-07 0.647968ZM46.8729-1.94386 50.7608 5.10213e-05 46.8729 1.94396Z" transform="matrix(-1 0 0 1.00038 120.752 191.913)"/><path d="M285.807 255.654 330.088 255.654 330.088 256.95 285.807 256.95ZM286.455 258.246 282.567 256.302 286.455 254.358ZM329.44 254.358 333.328 256.302 329.44 258.246Z" transform="matrix(1 0 0 1.00048 -212.576 -46.5254)"/><path d="M3.23981-0.647968 50.3433-0.647919 50.3433 0.648021 3.23981 0.647972ZM3.88782 1.94391 0 0 3.88782-1.9439Z" transform="matrix(-1 0 0 1.00038 120.335 85.4542)"/><path d="M3.23981-0.647968 50.3433-0.647919 50.3433 0.648021 3.23981 0.647972ZM3.88782 1.94391 0 0 3.88782-1.9439Z" transform="matrix(-1 0 0 1.00038 120.335 99.5519)"/><path d="M285.807 116.692 332.91 116.692 332.91 117.988 285.807 117.988ZM286.455 119.284 282.567 117.34 286.455 115.396Z" transform="matrix(1 0 0 1.00048 -212.576 -46.5254)"/></g></svg>